<svg width="60" height="60" viewBox="0 0 60 60" fill="none" xmlns="http://www.w3.org/2000/svg">
<rect x="27" y="44" width="12" height="15" fill="#FFCC00"/>
<path d="M1 14.5L0.5 10.5L30 1L58.5 10.5V14.5L30 4.5L1 14.5Z" fill="#FFCC00"/>
<path d="M58.7264 15.4345C58.8261 15.4674 58.9297 15.4839 59.0323 15.4839C59.2326 15.4839 59.431 15.4219 59.5974 15.301C59.851 15.119 60 14.8268 60 14.5161V10.6452C60 10.2281 59.7339 9.85935 59.3381 9.72677L30.3058 0.0493548C30.1065 -0.0164516 29.8926 -0.0164516 29.6932 0.0493548L0.660968 9.72677C0.266129 9.85935 0 10.2281 0 10.6452V14.5161C0 14.8268 0.149032 15.119 0.402581 15.301C0.655161 15.4829 0.978387 15.5313 1.27452 15.4345L3.87097 14.5684V32.9032H0V34.8387H2.90323V38.7097H0.967742C0.433548 38.7097 0 39.1432 0 39.6774V59.0323C0 59.5664 0.433548 60 0.967742 60H19.3548H23.2258H57.0968C57.631 60 58.0645 59.5664 58.0645 59.0323V40.6452H60V38.7097H58.0645V24.2477L59.0845 24.1926C59.5974 24.1645 60 23.7397 60 23.2258V19.3548C60 19.0906 59.8916 18.8371 59.699 18.6542C59.5074 18.4723 59.2529 18.3784 58.9848 18.3881L56.129 18.5274V14.5684L58.7264 15.4345ZM1.93548 11.3429L30 1.98774L58.0645 11.3429V13.1739L30.3058 3.92032C30.2061 3.88742 30.1035 3.87097 30 3.87097C29.8965 3.87097 29.7939 3.88742 29.6942 3.92032L1.93548 13.1739V11.3429ZM4.83871 34.8387H6.77419V38.7097H4.83871V34.8387ZM18.3871 34.8387V38.7097H16.4516V34.8387H18.3871ZM14.5161 38.7097H12.5806V34.8387H14.5161V38.7097ZM10.6452 38.7097H8.70968V34.8387H10.6452V38.7097ZM1.93548 40.6452H18.3871V58.0645H16.4516V44.5161C16.4516 43.9819 16.0181 43.5484 15.4839 43.5484H5.80645C5.27226 43.5484 4.83871 43.9819 4.83871 44.5161V58.0645H1.93548V40.6452ZM11.6129 45.4839H14.5161V58.0645H11.6129V45.4839ZM9.67742 58.0645H6.77419V45.4839H9.67742V58.0645ZM19.3548 20.3216L19.3268 20.3226H17.4194V16.4516H19.3548V20.3216ZM35.8064 38.7097V32.9032H39.6774V38.7097H35.8064ZM30 38.7097V32.9032H33.871V38.7097H30ZM39.6774 30.9677H35.8064V25.4506L39.6774 25.2416V30.9677ZM33.871 30.9677H30V25.7642L33.871 25.5552V30.9677ZM28.0645 30.9677H24.1935V26.0777L28.0645 25.8687V30.9677ZM24.1935 32.9032H28.0645V38.7097H24.1935V32.9032ZM37.7419 58.0645H33.871V44.5161H37.7419V58.0645ZM31.9355 58.0645H28.0645V44.5161H31.9355V58.0645ZM56.129 58.0645H39.6774V43.5484C39.6774 43.0142 39.2439 42.5806 38.7097 42.5806H27.0968C26.5626 42.5806 26.129 43.0142 26.129 43.5484V58.0645H24.1935V40.6452H56.129V58.0645ZM56.129 38.7097H41.6129V25.1361L56.129 24.3513V38.7097ZM58.0645 22.3094L23.1735 24.1955C22.6606 24.2226 22.2581 24.6474 22.2581 25.1613V58.0645H20.3226V22.2126L58.0645 20.371V22.3094ZM54.1935 18.6213L21.2903 20.2268V15.4839C21.2903 14.9497 20.8568 14.5161 20.3226 14.5161H16.4516C15.9174 14.5161 15.4839 14.9497 15.4839 15.4839V21.2903C15.4839 21.8245 15.9174 22.2581 16.4516 22.2581H18.3871V32.9032H5.80645V13.9239L30 5.85968L54.1935 13.9239V18.6213Z" fill="#011B4E"/>
<path d="M12.5807 14.5161H8.70969C8.17549 14.5161 7.74194 14.9497 7.74194 15.4839V21.2903C7.74194 21.8245 8.17549 22.258 8.70969 22.258H12.5807C13.1148 22.258 13.5484 21.8245 13.5484 21.2903V15.4839C13.5484 14.9497 13.1148 14.5161 12.5807 14.5161ZM11.6129 20.3226H9.67743V16.4516H11.6129V20.3226Z" fill="#011B4E"/>
</svg>
