<svg width="60" height="60" viewBox="0 0 60 60" fill="none" xmlns="http://www.w3.org/2000/svg">
<rect x="24" y="41" width="12" height="18" fill="#FFCC00"/>
<rect x="5" y="1" width="51" height="4" fill="#FFCC00"/>
<path d="M59 58H54V6H56C56.6 6 57 5.60004 57 5.00004V0.999961C57 0.399961 56.6 0 56 0H3.99996C3.39996 0 3 0.399961 3 0.999961V4.99992C3 5.59992 3.39996 5.99988 3.99996 5.99988H6V57.9998H0.999961C0.399961 57.9998 0 58.3998 0 58.9998C0 59.5998 0.399961 60 0.999961 60H6.99996H24H36H53H59C59.6 60 60 59.6 60 59C60 58.4 59.6 58 59 58ZM5.00004 2.00004H55.0001V4.00008H53H6.99996H5.00004V2.00004ZM25 58V42H28.9999V58H25ZM31 58V42H34.9999V58H31ZM37 58V41C37 40.4 36.6 40.0001 36 40.0001H24C23.4 40.0001 23 40.4 23 41V58.0001H8.00004V6H52.0001V58H37Z" fill="#011B4E"/>
<path d="M27 9.99994H19H11.0001C10.4001 9.99994 10.0001 10.3999 10.0001 10.9999V18.9999C10.0001 19.5999 10.4001 19.9999 11.0001 19.9999H19.0001H27C27.6 19.9999 28 19.5999 28 18.9999V11C28 10.4 27.6 9.99994 27 9.99994ZM12 12H18V18H12V12ZM26.0001 18H20.0001V12H26.0001V18Z" fill="#011B4E"/>
<path d="M20.0001 40H11.0001C10.4001 40 10.0001 40.3999 10.0001 40.9999V49C10.0001 49.6 10.4001 49.9999 11.0001 49.9999H20.0001C20.6001 49.9999 21 49.6 21 49V40.9999C21 40.4 20.6001 40 20.0001 40ZM19 48H12V42H19V48Z" fill="#011B4E"/>
<path d="M49 40H40C39.4 40 39 40.3999 39 40.9999V49C39 49.6 39.4 49.9999 40 49.9999H49C49.6 49.9999 49.9999 49.6 49.9999 49V40.9999C50 40.4 49.6 40 49 40ZM48 48H41V42H48V48Z" fill="#011B4E"/>
<path d="M49 9.99994H40.9999H33C32.4 9.99994 32 10.3999 32 10.9999V18.9999C32 19.5999 32.4 19.9999 33 19.9999H41H49.0001C49.6001 19.9999 50 19.5999 50 18.9999V11C50 10.4 49.6 9.99994 49 9.99994ZM34 12H40V18H34V12ZM48 18H42V12H48V18Z" fill="#011B4E"/>
<path d="M27 24H19H11.0001C10.4001 24 10.0001 24.4 10.0001 25V33C10.0001 33.6 10.4001 33.9999 11.0001 33.9999H19.0001H27C27.6 33.9999 28 33.6 28 33V25C28 24.4 27.6 24 27 24ZM12 26H18V32H12V26ZM26.0001 32H20.0001V26H26.0001V32Z" fill="#011B4E"/>
<path d="M49 24H40.9999H33C32.4 24 32 24.4 32 25V33C32 33.6 32.4 33.9999 33 33.9999H41H49.0001C49.6001 33.9999 50 33.6 50 33V25C50 24.4 49.6 24 49 24ZM34 26H40V32H34V26ZM48 32H42V26H48V32Z" fill="#011B4E"/>
</svg>
