<svg width="60" height="60" viewBox="0 0 60 60" fill="none" xmlns="http://www.w3.org/2000/svg">
<g clip-path="url(#clip0)">
<rect x="19" y="40" width="22" height="14" fill="#FFCC00"/>
<path d="M24.0988 29.5082H35.9021C36.4453 29.5082 36.8857 29.0678 36.8857 28.5246V16.7213C36.8857 16.4605 36.782 16.2103 36.5976 16.0259L30.6959 10.1242C30.3117 9.74049 29.6893 9.74049 29.305 10.1242L23.4034 16.0259C23.219 16.2103 23.1152 16.4605 23.1152 16.7213V28.5246C23.1152 29.0678 23.5556 29.5082 24.0988 29.5082ZM25.0824 22.623H29.0169V27.541H25.0824V22.623ZM30.9841 27.541V22.623H34.9185V27.541H30.9841ZM34.9185 20.6557H30.9841V13.1538L34.9185 17.0882V20.6557ZM29.0169 13.1538V20.6557H25.0824V17.0882L29.0169 13.1538Z" fill="#011B4E"/>
<path d="M20.1644 35.4098C20.7076 35.4098 21.1481 34.9694 21.1481 34.4262V22.6229C21.1481 22.0798 20.7076 21.6393 20.1644 21.6393H8.36117C7.81798 21.6393 7.37756 22.0798 7.37756 22.6229V34.4262C7.37756 34.9694 7.81798 35.4098 8.36117 35.4098H20.1644ZM9.34478 29.5082H13.2792V33.4426H9.34478V29.5082ZM15.2464 33.4426V29.5082H19.1808V33.4426H15.2464ZM19.1808 27.541H15.2464V23.6066H19.1808V27.541ZM13.2792 23.6066V27.541H9.34478V23.6066H13.2792Z" fill="#011B4E"/>
<path d="M39.8366 35.4098H51.6399C52.183 35.4098 52.6235 34.9694 52.6235 34.4262V22.6229C52.6235 22.0798 52.183 21.6393 51.6399 21.6393H39.8366C39.2934 21.6393 38.853 22.0798 38.853 22.6229V34.4262C38.853 34.9694 39.2934 35.4098 39.8366 35.4098ZM40.8202 29.5082H44.7546V33.4426H40.8202V29.5082ZM46.7218 33.4426V29.5082H50.6562V33.4426H46.7218ZM50.6562 27.541H46.7218V23.6066H50.6562V27.541ZM44.7546 23.6066V27.541H40.8202V23.6066H44.7546Z" fill="#011B4E"/>
<path d="M26.066 46.2295H28.0333V48.1967H26.066V46.2295Z" fill="#011B4E"/>
<path d="M31.9677 46.2295H33.9349V48.1967H31.9677V46.2295Z" fill="#011B4E"/>
<path d="M58.525 54.0984H56.5578V17.7049H58.525C58.8478 17.7049 59.1503 17.5469 59.3338 17.2818C59.5177 17.0167 59.56 16.6781 59.4467 16.376L53.545 0.638288C53.4009 0.254067 53.034 -0.000479598 52.6234 6.78462e-07H7.37748C6.96732 -0.000479598 6.59991 0.254067 6.45583 0.638288L0.554187 16.376C0.440842 16.6781 0.483106 17.0167 0.667052 17.2818C0.850998 17.5469 1.15309 17.7049 1.47584 17.7049H3.44305V54.0984H1.47584C0.932645 54.0984 0.492231 54.5388 0.492231 55.082V59.0164C0.492231 59.5596 0.932645 60 1.47584 60H58.525C59.0682 60 59.5086 59.5596 59.5086 59.0164V55.082C59.5086 54.5388 59.0682 54.0984 58.525 54.0984ZM8.05947 1.96721H51.9419L57.1058 15.7377H42.1971L30.6968 4.22259C30.5124 4.03769 30.2622 3.93395 30.0009 3.93395C29.7401 3.93395 29.4894 4.03769 29.305 4.22259L17.7899 15.7377H2.89554L8.05947 1.96721ZM5.41026 17.7049H18.1972C18.4579 17.7049 18.7082 17.6012 18.8926 17.4168L30.0004 6.30988L41.0905 17.4158C41.2754 17.6007 41.5256 17.7049 41.7869 17.7049H54.5906V54.0984H42.7873V43.2787C42.7873 40.5627 40.5857 38.3607 37.8693 38.3607H22.1316C19.4156 38.3607 17.2135 40.5627 17.2135 43.2787V54.0984H5.41026V17.7049ZM19.1808 54.0984V43.2787C19.1808 41.6491 20.502 40.3279 22.1316 40.3279H29.0168V54.0984H19.1808ZM30.984 40.3279H37.8693C39.4993 40.3279 40.8201 41.6491 40.8201 43.2787V54.0984H30.984V40.3279ZM57.5414 58.0328H2.45944V56.0656H57.5414V58.0328Z" fill="#011B4E"/>
</g>
<defs>
<clipPath id="clip0">
<rect width="60" height="60" fill="white"/>
</clipPath>
</defs>
</svg>
