<svg width="60" height="60" viewBox="0 0 60 60" fill="none" xmlns="http://www.w3.org/2000/svg">
<g clip-path="url(#clip0)">
<rect x="6" y="15" width="48" height="8" fill="#FFCC00"/>
<path d="M59.3262 10.0555L30.3262 0.055542C30.1147 -0.0172119 29.8853 -0.0172119 29.6738 0.055542L0.673828 10.0555C0.270996 10.1947 0 10.5741 0 11.0004V59.0004C0 59.5526 0.447754 60.0004 1 60.0004H6C6.55225 60.0004 7 59.5526 7 59.0004V24.0004H53V59.0004C53 59.5526 53.4478 60.0004 54 60.0004H59C59.5522 60.0004 60 59.5526 60 59.0004V11.0004C60 10.5741 59.729 10.1947 59.3262 10.0555ZM53 22.0004H7V20.0004H53V22.0004ZM53 18.0004H7V16.0004H53V18.0004ZM58 58.0004H55V15.0004C55 14.4481 54.5522 14.0004 54 14.0004H6C5.44775 14.0004 5 14.4481 5 15.0004V58.0004H2V11.7133L30 2.05847L58 11.7133V58.0004Z" fill="#011B4E"/>
<path d="M46 37.9995H35V28.9995C35 28.4473 34.5522 27.9995 34 27.9995H10C9.44775 27.9995 9 28.4473 9 28.9995V58.9995C9 59.5518 9.44775 59.9995 10 59.9995H46C46.5522 59.9995 47 59.5518 47 58.9995V38.9995C47 38.4473 46.5522 37.9995 46 37.9995ZM15 29.9995H17V31.9995H15V29.9995ZM21 57.9995H11V49.9995H13V52.9995C13 53.5518 13.4478 53.9995 14 53.9995H18C18.5522 53.9995 19 53.5518 19 52.9995V49.9995H21V57.9995ZM15 51.9995V49.9995H17V51.9995H15ZM21 47.9995H11V39.9995H13V42.9995C13 43.5518 13.4478 43.9995 14 43.9995H18C18.5522 43.9995 19 43.5518 19 42.9995V39.9995H21V47.9995ZM15 41.9995V39.9995H17V41.9995H15ZM21 37.9995H11V29.9995H13V32.9995C13 33.5518 13.4478 33.9995 14 33.9995H18C18.5522 33.9995 19 33.5518 19 32.9995V29.9995H21V37.9995ZM27 29.9995H29V31.9995H27V29.9995ZM33 57.9995H23V49.9995H25V52.9995C25 53.5518 25.4478 53.9995 26 53.9995H30C30.5522 53.9995 31 53.5518 31 52.9995V49.9995H33V57.9995ZM27 51.9995V49.9995H29V51.9995H27ZM33 47.9995H23V39.9995H25V42.9995C25 43.5518 25.4478 43.9995 26 43.9995H30C30.5522 43.9995 31 43.5518 31 42.9995V39.9995H33V47.9995ZM27 41.9995V39.9995H29V41.9995H27ZM33 37.9995H23V29.9995H25V32.9995C25 33.5518 25.4478 33.9995 26 33.9995H30C30.5522 33.9995 31 33.5518 31 32.9995V29.9995H33V37.9995ZM39 39.9995H41V41.9995H39V39.9995ZM45 57.9995H35V49.9995H37V52.9995C37 53.5518 37.4478 53.9995 38 53.9995H42C42.5522 53.9995 43 53.5518 43 52.9995V49.9995H45V57.9995ZM39 51.9995V49.9995H41V51.9995H39ZM45 47.9995H35V39.9995H37V42.9995C37 43.5518 37.4478 43.9995 38 43.9995H42C42.5522 43.9995 43 43.5518 43 42.9995V39.9995H45V47.9995Z" fill="#011B4E"/>
</g>
<defs>
<clipPath id="clip0">
<rect width="60" height="60" fill="white"/>
</clipPath>
</defs>
</svg>
