<svg width="60" height="60" viewBox="0 0 60 60" fill="none" xmlns="http://www.w3.org/2000/svg">
<rect x="22" y="28" width="16" height="31" fill="#FFCC00"/>
<path d="M9.99996 17C9.39996 17 9 17.4 9 18V20C9 20.6 9.39996 21 9.99996 21C10.6 21 10.9999 20.6 10.9999 20V18C11 17.4 10.6 17 9.99996 17Z" fill="#011B4E"/>
<path d="M9.99996 11C9.39996 11 9 11.4 9 12V14C9 14.6 9.39996 15 9.99996 15C10.6 15 10.9999 14.6 10.9999 14V12C11 11.4 10.6 11 9.99996 11Z" fill="#011B4E"/>
<path d="M9.99996 53.0001C9.39996 53.0001 9 53.4 9 54V55C9 55.6 9.39996 55.9999 9.99996 55.9999C10.6 55.9999 10.9999 55.6 10.9999 55V54C11 53.4 10.6 53.0001 9.99996 53.0001Z" fill="#011B4E"/>
<path d="M9.99996 23C9.39996 23 9 23.4 9 24V26C9 26.6 9.39996 27 9.99996 27C10.6 27 10.9999 26.6 10.9999 26V24C11 23.4 10.6 23 9.99996 23Z" fill="#011B4E"/>
<path d="M9.99996 41C9.39996 41 9 41.4 9 42V44C9 44.6 9.39996 45 9.99996 45C10.6 45 10.9999 44.6 10.9999 44V42C11 41.4 10.6 41 9.99996 41Z" fill="#011B4E"/>
<path d="M9.99996 47C9.39996 47 9 47.4 9 48V50C9 50.6 9.39996 51 9.99996 51C10.6 51 10.9999 50.6 10.9999 50V48C11 47.4 10.6 47 9.99996 47Z" fill="#011B4E"/>
<path d="M9.99996 35C9.39996 35 9 35.4 9 36V38C9 38.6 9.39996 39 9.99996 39C10.6 39 10.9999 38.6 10.9999 38V36C11 35.4 10.6 35 9.99996 35Z" fill="#011B4E"/>
<path d="M9.99996 29.0001C9.39996 29.0001 9 29.4 9 30V32.0001C9 32.6001 9.39996 33 9.99996 33C10.6 33 10.9999 32.6001 10.9999 32.0001V30C11 29.4 10.6 29.0001 9.99996 29.0001Z" fill="#011B4E"/>
<path d="M14.0001 17C13.4001 17 13.0001 17.4 13.0001 18V20C13.0001 20.6 13.4001 21 14.0001 21C14.6001 21 15 20.6 15 20V18C15 17.4 14.6001 17 14.0001 17Z" fill="#011B4E"/>
<path d="M14.0001 11C13.4001 11 13.0001 11.4 13.0001 12V14C13.0001 14.6 13.4001 15 14.0001 15C14.6001 15 15 14.6 15 14V12C15 11.4 14.6001 11 14.0001 11Z" fill="#011B4E"/>
<path d="M14.0001 29.0001C13.4001 29.0001 13.0001 29.4 13.0001 30V32.0001C13.0001 32.6001 13.4001 33 14.0001 33C14.6001 33 15 32.6001 15 32.0001V30C15 29.4 14.6001 29.0001 14.0001 29.0001Z" fill="#011B4E"/>
<path d="M14.0001 23C13.4001 23 13.0001 23.4 13.0001 24V26C13.0001 26.6 13.4001 27 14.0001 27C14.6001 27 15 26.6 15 26V24C15 23.4 14.6001 23 14.0001 23Z" fill="#011B4E"/>
<path d="M14.0001 47C13.4001 47 13.0001 47.4 13.0001 48V50C13.0001 50.6 13.4001 51 14.0001 51C14.6001 51 15 50.6 15 50V48C15 47.4 14.6001 47 14.0001 47Z" fill="#011B4E"/>
<path d="M14.0001 35C13.4001 35 13.0001 35.4 13.0001 36V38C13.0001 38.6 13.4001 39 14.0001 39C14.6001 39 15 38.6 15 38V36C15 35.4 14.6001 35 14.0001 35Z" fill="#011B4E"/>
<path d="M14.0001 53.0001C13.4001 53.0001 13.0001 53.4 13.0001 54V55C13.0001 55.6 13.4001 55.9999 14.0001 55.9999C14.6001 55.9999 15 55.6 15 55V54C15 53.4 14.6001 53.0001 14.0001 53.0001Z" fill="#011B4E"/>
<path d="M14.0001 41C13.4001 41 13.0001 41.4 13.0001 42V44C13.0001 44.6 13.4001 45 14.0001 45C14.6001 45 15 44.6 15 44V42C15 41.4 14.6001 41 14.0001 41Z" fill="#011B4E"/>
<path d="M18 17C17.4 17 17.0001 17.4 17.0001 18V20C17.0001 20.6 17.4 21 18 21C18.6 21 19 20.6 19 20V18C19 17.4 18.6 17 18 17Z" fill="#011B4E"/>
<path d="M18 23C17.4 23 17.0001 23.4 17.0001 24V26C17.0001 26.6 17.4 27 18 27C18.6 27 19 26.6 19 26V24C19 23.4 18.6 23 18 23Z" fill="#011B4E"/>
<path d="M18 11C17.4 11 17.0001 11.4 17.0001 12V14C17.0001 14.6 17.4 15 18 15C18.6 15 19 14.6 19 14V12C19 11.4 18.6 11 18 11Z" fill="#011B4E"/>
<path d="M18 41C17.4 41 17.0001 41.4 17.0001 42V44C17.0001 44.6 17.4 45 18 45C18.6 45 19 44.6 19 44V42C19 41.4 18.6 41 18 41Z" fill="#011B4E"/>
<path d="M18 29.0001C17.4 29.0001 17.0001 29.4 17.0001 30V32.0001C17.0001 32.6001 17.4 33 18 33C18.6 33 19 32.6001 19 32.0001V30C19 29.4 18.6 29.0001 18 29.0001Z" fill="#011B4E"/>
<path d="M18 53.0001C17.4 53.0001 17.0001 53.4 17.0001 54V55C17.0001 55.6 17.4 55.9999 18 55.9999C18.6 55.9999 19 55.6 19 55V54C19 53.4 18.6 53.0001 18 53.0001Z" fill="#011B4E"/>
<path d="M18 47C17.4 47 17.0001 47.4 17.0001 48V50C17.0001 50.6 17.4 51 18 51C18.6 51 19 50.6 19 50V48C19 47.4 18.6 47 18 47Z" fill="#011B4E"/>
<path d="M18 35C17.4 35 17.0001 35.4 17.0001 36V38C17.0001 38.6 17.4 39 18 39C18.6 39 19 38.6 19 38V36C19 35.4 18.6 35 18 35Z" fill="#011B4E"/>
<path d="M26.0001 43C25.4001 43 25.0001 43.4 25.0001 44V46C25.0001 46.6 25.4001 47 26.0001 47C26.6001 47 27 46.6 27 46V44C27 43.4001 26.6001 43 26.0001 43Z" fill="#011B4E"/>
<path d="M26.0001 37C25.4001 37 25.0001 37.3999 25.0001 37.9999V40C25.0001 40.6 25.4001 40.9999 26.0001 40.9999C26.6001 40.9999 27 40.6 27 40V37.9999C27 37.4 26.6001 37 26.0001 37Z" fill="#011B4E"/>
<path d="M26.0001 31C25.4001 31 25.0001 31.3999 25.0001 31.9999V34C25.0001 34.6 25.4001 34.9999 26.0001 34.9999C26.6001 34.9999 27 34.6 27 34V31.9999C27 31.4001 26.6001 31 26.0001 31Z" fill="#011B4E"/>
<path d="M26.0001 49C25.4001 49 25.0001 49.3999 25.0001 49.9999V52C25.0001 52.6 25.4001 52.9999 26.0001 52.9999C26.6001 52.9999 27 52.6 27 52V49.9999C27 49.4 26.6001 49 26.0001 49Z" fill="#011B4E"/>
<path d="M30 31C29.4 31 29.0001 31.3999 29.0001 31.9999V34C29.0001 34.6 29.4 34.9999 30 34.9999C30.6 34.9999 31 34.6 31 34V31.9999C31 31.4001 30.6 31 30 31Z" fill="#011B4E"/>
<path d="M30 37C29.4 37 29.0001 37.3999 29.0001 37.9999V40C29.0001 40.6 29.4 40.9999 30 40.9999C30.6 40.9999 31 40.6 31 40V37.9999C31 37.4 30.6 37 30 37Z" fill="#011B4E"/>
<path d="M30 49C29.4 49 29.0001 49.3999 29.0001 49.9999V52C29.0001 52.6 29.4 52.9999 30 52.9999C30.6 52.9999 31 52.6 31 52V49.9999C31 49.4 30.6 49 30 49Z" fill="#011B4E"/>
<path d="M30 43C29.4 43 29.0001 43.4 29.0001 44V46C29.0001 46.6 29.4 47 30 47C30.6 47 31 46.6 31 46V44C31 43.4001 30.6 43 30 43Z" fill="#011B4E"/>
<path d="M34 37C33.4 37 33 37.3999 33 37.9999V40C33 40.6 33.4 40.9999 34 40.9999C34.6 40.9999 34.9999 40.6 34.9999 40V37.9999C35 37.4 34.6 37 34 37Z" fill="#011B4E"/>
<path d="M34 31C33.4 31 33 31.3999 33 31.9999V34C33 34.6 33.4 34.9999 34 34.9999C34.6 34.9999 34.9999 34.6 34.9999 34V31.9999C35 31.4001 34.6 31 34 31Z" fill="#011B4E"/>
<path d="M34 49C33.4 49 33 49.3999 33 49.9999V52C33 52.6 33.4 52.9999 34 52.9999C34.6 52.9999 34.9999 52.6 34.9999 52V49.9999C35 49.4 34.6 49 34 49Z" fill="#011B4E"/>
<path d="M34 43C33.4 43 33 43.4 33 44V46C33 46.6 33.4 47 34 47C34.6 47 34.9999 46.6 34.9999 46V44C35 43.4001 34.6 43 34 43Z" fill="#011B4E"/>
<path d="M42 53.0001C41.4 53.0001 41.0001 53.4 41.0001 54V55C41.0001 55.6 41.4 55.9999 42 55.9999C42.6 55.9999 43 55.6 43 55V54C43 53.4 42.6 53.0001 42 53.0001Z" fill="#011B4E"/>
<path d="M42 17C41.4 17 41.0001 17.4 41.0001 18V20C41.0001 20.6 41.4 21 42 21C42.6 21 43 20.6 43 20V18C43 17.4 42.6 17 42 17Z" fill="#011B4E"/>
<path d="M42 11C41.4 11 41.0001 11.4 41.0001 12V14C41.0001 14.6 41.4 15 42 15C42.6 15 43 14.6 43 14V12C43 11.4 42.6 11 42 11Z" fill="#011B4E"/>
<path d="M42 47C41.4 47 41.0001 47.4 41.0001 48V50C41.0001 50.6 41.4 51 42 51C42.6 51 43 50.6 43 50V48C43 47.4 42.6 47 42 47Z" fill="#011B4E"/>
<path d="M42 23C41.4 23 41.0001 23.4 41.0001 24V26C41.0001 26.6 41.4 27 42 27C42.6 27 43 26.6 43 26V24C43 23.4 42.6 23 42 23Z" fill="#011B4E"/>
<path d="M42 41C41.4 41 41.0001 41.4 41.0001 42V44C41.0001 44.6 41.4 45 42 45C42.6 45 43 44.6 43 44V42C43 41.4 42.6 41 42 41Z" fill="#011B4E"/>
<path d="M42 35C41.4 35 41.0001 35.4 41.0001 36V38C41.0001 38.6 41.4 39 42 39C42.6 39 43 38.6 43 38V36C43 35.4 42.6 35 42 35Z" fill="#011B4E"/>
<path d="M42 29.0001C41.4 29.0001 41.0001 29.4 41.0001 30V32.0001C41.0001 32.6001 41.4 33 42 33C42.6 33 43 32.6001 43 32.0001V30C43 29.4 42.6 29.0001 42 29.0001Z" fill="#011B4E"/>
<path d="M46 23C45.4 23 45 23.4 45 24V26C45 26.6 45.4 27 46 27C46.6 27 46.9999 26.6 46.9999 26V24C47 23.4 46.6 23 46 23Z" fill="#011B4E"/>
<path d="M46 29.0001C45.4 29.0001 45 29.4 45 30V32.0001C45 32.6001 45.4 33 46 33C46.6 33 46.9999 32.6001 46.9999 32.0001V30C47 29.4 46.6 29.0001 46 29.0001Z" fill="#011B4E"/>
<path d="M46 17C45.4 17 45 17.4 45 18V20C45 20.6 45.4 21 46 21C46.6 21 46.9999 20.6 46.9999 20V18C47 17.4 46.6 17 46 17Z" fill="#011B4E"/>
<path d="M46 11C45.4 11 45 11.4 45 12V14C45 14.6 45.4 15 46 15C46.6 15 46.9999 14.6 46.9999 14V12C47 11.4 46.6 11 46 11Z" fill="#011B4E"/>
<path d="M46 35C45.4 35 45 35.4 45 36V38C45 38.6 45.4 39 46 39C46.6 39 46.9999 38.6 46.9999 38V36C47 35.4 46.6 35 46 35Z" fill="#011B4E"/>
<path d="M46 53.0001C45.4 53.0001 45 53.4 45 54V55C45 55.6 45.4 55.9999 46 55.9999C46.6 55.9999 46.9999 55.6 46.9999 55V54C47 53.4 46.6 53.0001 46 53.0001Z" fill="#011B4E"/>
<path d="M46 47C45.4 47 45 47.4 45 48V50C45 50.6 45.4 51 46 51C46.6 51 46.9999 50.6 46.9999 50V48C47 47.4 46.6 47 46 47Z" fill="#011B4E"/>
<path d="M46 41C45.4 41 45 41.4 45 42V44C45 44.6 45.4 45 46 45C46.6 45 46.9999 44.6 46.9999 44V42C47 41.4 46.6 41 46 41Z" fill="#011B4E"/>
<path d="M50.0001 17C49.4001 17 49.0001 17.4 49.0001 18V20C49.0001 20.6 49.4001 21 50.0001 21C50.6001 21 51 20.6 51 20V18C51 17.4 50.6001 17 50.0001 17Z" fill="#011B4E"/>
<path d="M50.0001 23C49.4001 23 49.0001 23.4 49.0001 24V26C49.0001 26.6 49.4001 27 50.0001 27C50.6001 27 51 26.6 51 26V24C51 23.4 50.6001 23 50.0001 23Z" fill="#011B4E"/>
<path d="M49 12V14C49 14.6 49.4 15 50 15C50.6 15 50.9999 14.6 50.9999 14V12C50.9999 11.4 50.6 11 50 11C49.4 11 49 11.4 49 12Z" fill="#011B4E"/>
<path d="M50.0001 29.0001C49.4001 29.0001 49.0001 29.4 49.0001 30V32.0001C49.0001 32.6001 49.4001 33 50.0001 33C50.6001 33 51 32.6001 51 32.0001V30C51 29.4 50.6001 29.0001 50.0001 29.0001Z" fill="#011B4E"/>
<path d="M50.0001 47C49.4001 47 49.0001 47.4 49.0001 48V50C49.0001 50.6 49.4001 51 50.0001 51C50.6001 51 51 50.6 51 50V48C51 47.4 50.6001 47 50.0001 47Z" fill="#011B4E"/>
<path d="M50.0001 35C49.4001 35 49.0001 35.4 49.0001 36V38C49.0001 38.6 49.4001 39 50.0001 39C50.6001 39 51 38.6 51 38V36C51 35.4 50.6001 35 50.0001 35Z" fill="#011B4E"/>
<path d="M50.0001 53.0001C49.4001 53.0001 49.0001 53.4 49.0001 54V55C49.0001 55.6 49.4001 55.9999 50.0001 55.9999C50.6001 55.9999 51 55.6 51 55V54C51 53.4 50.6001 53.0001 50.0001 53.0001Z" fill="#011B4E"/>
<path d="M50.0001 41C49.4001 41 49.0001 41.4 49.0001 42V44C49.0001 44.6 49.4001 45 50.0001 45C50.6001 45 51 44.6 51 44V42C51 41.4 50.6001 41 50.0001 41Z" fill="#011B4E"/>
<path d="M54 6.99996H51V3.99996C51 3.39996 50.6001 3 50.0001 3H47.0001V0.999961C47.0001 0.399961 46.6001 0 46.0001 0C45.4001 0 45 0.399961 45 0.999961V3H42C41.4 3 41.0001 3.39996 41.0001 3.99996V6.99996H38.0001C37.4001 6.99996 37.0001 7.39992 37.0001 7.99992V27H35.0001V24C35.0001 23.4 34.6001 23 34.0001 23H31.0001V21C31.0001 20.4 30.6001 20 30.0001 20C29.4001 20 29.0002 20.4 29.0002 21V23H26.0002C25.4002 23 25.0002 23.4 25.0002 24V27H23.0002V8.00004C23.0002 7.40004 22.6002 7.00008 22.0002 7.00008H19.0002V4.00008C19.0002 3.40008 18.6003 3.00012 18.0003 3.00012H15V0.999961C15 0.399961 14.6001 0 14.0001 0C13.4001 0 13.0001 0.399961 13.0001 0.999961V3H10.0001C9.4001 3 9.00014 3.39996 9.00014 3.99996V6.99996H6.00002C5.40002 6.99996 5.00006 7.39992 5.00006 7.99992V58.9999C5.00006 59.5999 5.40002 59.9999 6.00002 59.9999H22H37.9999H54C54.6 59.9999 55 59.5999 55 58.9999V7.99992C55 7.40004 54.6 6.99996 54 6.99996ZM43 5.00004H49V7.00008H43V5.00004ZM27 25H33V27H27V25ZM11.0001 5.00004H17.0001V7.00008H11.0001V5.00004ZM6.99998 9H9.99998H18H21V28V58H6.99998V9ZM23.0001 29H26.0001H34.0001H37.0001V58.0001H23.0001V29ZM53.0001 58H39V28V9H42H50.0001H53.0001V58Z" fill="#011B4E"/>
</svg>
